<?xml version="1.0" standalone="no"?>
<!DOCTYPE svg PUBLIC "-//W3C//DTD SVG 20010904//EN"
 "http://www.w3.org/TR/2001/REC-SVG-20010904/DTD/svg10.dtd">
<svg version="1.0" xmlns="http://www.w3.org/2000/svg"
 width="1200.000000pt" height="326.000000pt" viewBox="0 0 1200.000000 326.000000"
 preserveAspectRatio="xMidYMid meet">

<g transform="translate(0.000000,326.000000) scale(0.100000,-0.100000)"
fill="#000000" stroke="none">
<path d="M10 1625 l0 -1625 5995 0 5995 0 0 85 0 85 -5905 0 -5905 0 0 1540 0
1540 -90 0 -90 0 0 -1625z"/>
<path d="M1260 1909 l0 -671 253 5 c279 5 311 11 433 72 140 71 249 216 288
385 24 99 21 335 -4 434 -44 172 -150 310 -292 380 -113 56 -179 66 -445 66
l-233 0 0 -671z m518 466 c98 -29 182 -118 217 -228 22 -70 31 -302 16 -393
-24 -137 -94 -240 -199 -291 -51 -25 -69 -28 -189 -31 l-133 -4 0 481 0 481
118 0 c77 0 136 -5 170 -15z"/>
<path d="M3460 2360 l0 -120 -80 0 -80 0 0 -85 0 -85 80 0 80 0 0 -303 c0
-334 7 -392 59 -457 46 -59 101 -80 206 -79 143 2 140 -1 140 99 l0 84 -62 -3
c-55 -2 -65 1 -88 23 l-25 25 0 306 0 305 85 0 85 0 0 85 0 85 -85 0 -84 0 -3
118 -3 117 -112 3 -113 3 0 -121z"/>
<path d="M2675 2236 c-141 -46 -255 -160 -255 -256 l0 -30 110 0 c102 0 110 1
110 19 0 25 44 77 81 96 38 20 142 19 185 -1 48 -23 73 -70 81 -148 l6 -66
-109 0 c-194 0 -310 -32 -393 -106 -65 -59 -92 -123 -92 -219 0 -91 21 -143
80 -201 72 -73 118 -89 251 -89 124 0 157 10 229 71 18 14 33 25 35 23 2 -2 7
-22 13 -44 l9 -40 117 -3 c64 -1 117 -1 117 0 0 2 -8 26 -17 53 -14 41 -18
110 -22 385 -6 330 -7 336 -31 385 -33 68 -99 129 -168 156 -46 19 -80 24
-177 26 -79 2 -134 -2 -160 -11z m315 -620 c0 -87 -2 -97 -25 -125 -81 -95
-238 -116 -310 -41 -20 21 -29 42 -33 78 -11 122 73 179 271 181 l97 1 0 -94z"/>
<path d="M4245 2236 c-143 -46 -255 -157 -255 -256 l0 -30 110 0 c98 0 110 2
110 18 0 30 36 78 73 95 45 22 148 22 193 1 51 -25 74 -69 74 -146 l0 -65
-142 -6 c-163 -6 -247 -26 -319 -79 -88 -64 -122 -129 -123 -238 0 -123 55
-214 162 -267 52 -26 66 -28 172 -28 124 0 157 10 229 71 18 14 33 25 35 23 1
-2 7 -22 12 -44 l9 -40 118 -3 c64 -1 117 -1 117 1 0 3 -8 24 -17 48 -14 37
-18 98 -22 379 -6 318 -7 337 -28 383 -42 91 -101 144 -199 177 -67 24 -243
27 -309 6z m305 -630 l0 -104 -37 -32 c-51 -45 -98 -63 -168 -63 -102 -1 -155
47 -155 140 0 111 82 161 268 162 l92 1 0 -104z"/>
<path d="M6662 2229 c-23 -12 -58 -39 -77 -61 l-34 -40 -3 53 -3 54 -105 0
-105 0 0 -495 0 -495 113 -3 112 -3 0 351 0 350 38 38 c46 46 106 65 189 60
l60 -3 6 100 c3 55 3 103 1 107 -3 5 -38 8 -77 8 -53 0 -83 -6 -115 -21z"/>
<path d="M7159 2227 c-37 -12 -86 -36 -110 -52 -66 -46 -126 -141 -128 -202
-1 -22 1 -23 107 -23 l108 0 19 42 c30 64 63 82 153 86 68 3 81 1 112 -20 48
-32 70 -80 70 -150 l0 -58 -110 0 c-303 0 -463 -101 -478 -300 -9 -124 47
-224 159 -285 47 -25 67 -30 152 -33 111 -5 160 8 238 64 l47 32 12 -44 13
-44 114 0 c130 0 120 -9 93 85 -7 25 -15 168 -19 370 -6 319 -7 332 -30 377
-29 59 -87 113 -160 146 -49 23 -71 27 -176 30 -104 2 -129 -1 -186 -21z m331
-613 c0 -116 -13 -139 -96 -180 -142 -70 -286 -3 -270 124 14 107 90 149 274
151 l92 1 0 -96z"/>
<path d="M8258 2231 c-26 -11 -65 -33 -87 -50 -21 -17 -41 -31 -44 -31 -3 0
-7 19 -9 43 l-3 42 -102 3 -103 3 0 -691 0 -690 110 0 110 0 0 230 c0 127 2
230 4 230 2 0 27 -16 56 -35 65 -44 106 -55 201 -55 108 0 170 22 239 86 111
103 145 202 145 424 0 132 -3 165 -22 225 -43 135 -120 225 -231 268 -59 24
-201 22 -264 -2z m155 -175 c18 -7 47 -28 64 -46 118 -121 104 -470 -22 -565
-90 -69 -239 -48 -300 42 -25 37 -25 39 -25 253 0 192 2 218 19 243 19 30 50
55 91 74 35 16 134 16 173 -1z"/>
<path d="M9286 2234 c-38 -14 -103 -57 -118 -78 -12 -16 -28 14 -28 52 l0 32
-105 0 -105 0 0 -690 0 -690 110 0 110 0 0 235 0 236 46 -35 c68 -52 128 -69
237 -64 73 2 102 8 142 28 101 49 181 165 211 304 18 83 17 269 -1 356 -31
149 -120 268 -230 309 -67 25 -207 28 -269 5z m182 -196 c29 -20 49 -46 74
-95 32 -66 33 -70 33 -198 0 -147 -14 -205 -66 -268 -44 -54 -82 -71 -160 -71
-53 0 -74 5 -111 27 -84 49 -88 62 -88 308 l0 214 32 39 c46 56 98 77 179 74
52 -3 75 -9 107 -30z"/>
<path d="M10222 2231 c-72 -27 -109 -51 -163 -108 -94 -99 -129 -188 -136
-353 -6 -131 5 -208 42 -288 53 -117 156 -204 278 -237 90 -24 259 -17 340 14
62 24 147 86 173 127 17 25 17 26 -38 81 l-56 56 -49 -41 c-173 -145 -404 -85
-459 119 -7 30 -14 57 -14 62 0 4 146 7 325 7 l325 0 0 91 c0 227 -82 384
-238 457 -49 23 -72 27 -167 30 -89 2 -120 -2 -163 -17z m238 -176 c59 -31
110 -121 110 -195 l0 -30 -211 0 -212 0 7 41 c16 97 87 184 164 200 44 9 108
1 142 -16z"/>
<path d="M11243 2220 c-29 -17 -60 -41 -69 -55 -24 -37 -34 -30 -34 25 l0 50
-105 0 -105 0 0 -500 0 -500 110 0 110 0 0 341 c0 354 1 365 44 402 45 40 80
51 166 54 l85 2 0 103 0 103 -75 3 c-68 2 -80 -1 -127 -28z"/>
<path d="M4897 2233 c-2 -5 35 -152 84 -328 48 -176 109 -398 135 -492 l47
-173 92 0 93 0 10 37 c5 21 45 151 87 288 42 138 84 273 92 300 l16 50 13 -30
c7 -16 56 -167 107 -335 l95 -305 92 0 93 0 27 100 c15 55 60 219 100 365 93
338 140 513 140 523 0 4 -48 6 -107 5 l-108 -3 -26 -115 c-15 -63 -48 -207
-73 -320 -26 -113 -50 -213 -54 -224 -6 -14 -13 0 -29 55 -17 61 -78 261 -169
562 l-15 47 -83 0 -83 0 -93 -312 c-51 -172 -97 -324 -102 -338 -8 -21 -17 5
-54 160 -24 102 -60 254 -80 338 l-36 152 -104 0 c-56 0 -105 -3 -107 -7z"/>
</g>
</svg>
