<?xml version="1.0" standalone="no"?>
<!DOCTYPE svg PUBLIC "-//W3C//DTD SVG 20010904//EN"
 "http://www.w3.org/TR/2001/REC-SVG-20010904/DTD/svg10.dtd">
<svg version="1.0" xmlns="http://www.w3.org/2000/svg"
 width="530.000000pt" height="95.000000pt" viewBox="0 0 530.000000 95.000000"
 preserveAspectRatio="xMidYMid meet">

<g transform="translate(0.000000,95.000000) scale(0.100000,-0.100000)"
fill="#000000" stroke="none">
<path d="M425 928 c-2 -7 -9 -71 -15 -143 -6 -71 -13 -131 -15 -133 -2 -2 -52
37 -112 86 l-108 90 -32 -30 -31 -30 89 -106 c49 -58 89 -108 89 -112 0 -4
-37 -10 -82 -14 -46 -4 -109 -9 -140 -13 l-58 -6 0 -42 0 -42 58 -6 c31 -4 94
-9 140 -13 45 -4 82 -10 82 -14 0 -4 -40 -54 -89 -112 l-89 -106 31 -30 32
-30 108 90 c60 49 110 88 112 86 2 -2 10 -66 17 -143 l13 -140 41 -3 42 -3 6
43 c3 24 8 84 12 133 4 50 9 96 13 102 4 8 43 -18 116 -77 l109 -90 28 27 c15
15 28 29 28 33 0 3 -41 55 -91 115 l-92 110 114 11 c63 7 129 12 147 13 31 1
32 2 32 46 0 29 -4 45 -12 45 -24 0 -273 23 -276 26 -2 1 37 51 87 110 50 59
91 110 91 114 0 3 -13 18 -28 33 l-28 27 -109 -90 c-73 -59 -112 -85 -116 -77
-4 6 -9 53 -13 102 -4 50 -9 109 -12 133 -6 41 -7 42 -45 42 -23 0 -41 -5 -44
-12z"/>
<path d="M1060 475 l0 -455 85 0 85 0 0 180 0 180 205 0 205 0 0 75 0 75 -205
0 -206 0 3 128 3 127 218 3 217 2 0 70 0 70 -305 0 -305 0 0 -455z"/>
<path d="M1730 475 l0 -455 80 0 80 0 0 455 0 455 -80 0 -80 0 0 -455z"/>
<path d="M3830 860 l0 -70 75 0 75 0 0 70 0 70 -75 0 -75 0 0 -70z"/>
<path d="M4690 475 l0 -455 80 0 80 0 0 223 c0 191 2 227 18 257 24 49 75 80
129 80 58 0 99 -25 123 -75 18 -37 20 -63 20 -263 l0 -222 75 0 75 0 0 243 c0
269 -6 303 -61 370 -40 49 -99 78 -169 84 -72 7 -121 -9 -171 -54 l-39 -35 0
151 0 151 -80 0 -80 0 0 -455z"/>
<path d="M2145 695 c-41 -17 -75 -40 -107 -74 -65 -71 -83 -128 -83 -266 0
-105 2 -114 33 -177 37 -75 73 -111 147 -144 67 -30 138 -38 215 -24 82 15
126 38 177 92 59 65 85 142 86 253 0 106 -14 163 -55 227 -79 126 -261 175
-413 113z m208 -129 c42 -17 83 -66 97 -114 13 -49 13 -141 -1 -183 -39 -115
-162 -162 -263 -100 -80 50 -109 213 -55 317 42 82 136 116 222 80z"/>
<path d="M4226 705 c-102 -39 -156 -104 -156 -188 0 -57 14 -94 48 -130 39
-41 69 -54 199 -88 131 -33 155 -48 151 -93 -8 -84 -227 -89 -253 -6 -6 18
-16 20 -87 20 l-80 0 6 -32 c25 -128 181 -206 357 -179 144 23 219 92 219 201
0 123 -59 174 -257 220 -127 30 -164 63 -133 120 26 48 151 47 200 -1 26 -27
34 -29 104 -29 86 0 90 4 57 68 -24 46 -53 73 -111 102 -58 30 -205 38 -264
15z"/>
<path d="M2672 458 c4 -239 5 -256 27 -306 43 -95 122 -145 231 -145 72 -1
115 16 166 65 l32 30 7 -41 7 -41 64 0 64 0 0 345 0 345 -75 0 -75 0 0 -225
c0 -208 -2 -229 -21 -266 -40 -80 -163 -103 -222 -41 -43 45 -47 71 -47 308
l0 224 -81 0 -81 0 4 -252z"/>
<path d="M3370 360 l0 -350 75 0 75 0 0 204 c0 120 4 216 11 233 15 42 68 92
109 103 19 5 58 10 85 10 l50 0 -3 76 -4 77 -74 -7 c-79 -6 -117 -20 -148 -55
-27 -30 -33 -27 -41 19 l-7 40 -64 0 -64 0 0 -350z"/>
<path d="M3830 365 l0 -345 75 0 75 0 0 345 0 345 -75 0 -75 0 0 -345z"/>
</g>
</svg>
